<?xml version="1.0" encoding="utf-8"?><svg version="1.1" id="Capa_1" xmlns="http://www.w3.org/2000/svg" x="0" y="0" viewBox="0 0 30.4 29.3" xml:space="preserve"><style>.st0{fill:#29abe2}</style><path class="st0" d="M19.4 10.7h-7.8v7.8h7.8v-7.8zm-.8 7.1h-6.3v-6.3h6.3v6.3z"/><path class="st0" d="M30.4 10.7c0-.4-.4-.8-.8-.8s-.8.4-.8.8c0 .3.2.5.4.7v1.3h-6.9v-2.1h4.3V8.3c.2-.1.4-.4.4-.7 0-.4-.4-.8-.8-.8s-.8.4-.8.8c0 .3.2.5.4.7v1.5h-3.6V7.7h-1.8V4.4H22c.1.2.4.4.7.4.4 0 .8-.4.8-.8s-.4-.8-.8-.8c-.3 0-.5.2-.7.4h-2.1v4h-2.2V1.2h.9c.1.2.4.4.7.4.4 0 .8-.4.8-.8-.1-.4-.4-.8-.9-.8-.3 0-.5.2-.7.4h-1.7v7.3H14v-.9c.2-.1.4-.4.4-.7 0-.4-.4-.8-.8-.8s-.8.4-.8.8c0 .3.2.5.4.7v.9H11V1.5H9.6c-.1-.3-.4-.4-.7-.4-.4 0-.8.4-.8.8s.4.8.8.8c.3 0 .5-.2.7-.4h.6v5.5H8.6v1.5H4.4v-.6c.3-.1.4-.4.4-.7 0-.4-.4-.8-.8-.8s-.7.4-.7.8c0 .3.2.5.4.7V10h4.9v2.2H1.2v-.7c.2-.1.4-.4.4-.7 0-.4-.4-.8-.8-.8s-.8.4-.8.8c0 .3.2.5.4.7V13h8.1v2.7h-7v1.7c-.2.1-.4.4-.4.7 0 .4.4.8.8.8s.8-.4.8-.8c0-.3-.2-.5-.4-.7v-.9h6.3v2.8H7.5c-.1-.2-.4-.4-.7-.4-.4 0-.8.4-.8.8s.4.8.8.8c.3 0 .5-.2.7-.4h1.1v1.6h1.3v3.2h-.4c-.1-.3-.4-.5-.7-.5-.4 0-.8.4-.8.8s.4.8.8.8c.3 0 .5-.2.7-.4h1.2v-4h2.5v6.7h-.8c-.1-.2-.4-.4-.7-.4-.4 0-.8.4-.8.8s.4.8.8.8c.3 0 .5-.2.7-.4H14v-7.4h2.9v5.9h1.4c.1.2.4.4.7.4.4 0 .8-.4.8-.8s-.4-.8-.8-.8c-.3 0-.5.2-.7.4h-.7v-5.2h2.6v.8c-.2.1-.4.4-.4.7 0 .4.4.8.8.8s.8-.4.8-.8c0-.3-.2-.5-.4-.7v-.8h1.5V20h4.2v.2c-.2.1-.4.4-.4.7 0 .4.4.8.8.8s.8-.4.8-.8c0-.3-.2-.5-.4-.7v-1h-4.9v-2.4h.8c.1.2.4.4.7.4.4 0 .8-.4.8-.8s-.4-.8-.8-.8c-.3 0-.5.2-.7.4h-.8v-2.6H30v-2.1c.2 0 .4-.3.4-.6zm-8.8 10.1H9.3V8.4h12.3v12.4z"/></svg>